<mxfile host="app.diagrams.net" modified="2021-05-03T10:11:29.036Z" agent="5.0 (Macintosh; Intel Mac OS X 10_15_6) AppleWebKit/605.1.15 (KHTML, like Gecko) Version/14.0.3 Safari/605.1.15" etag="pH7_tCM9-GrEu-3ArqlG" version="14.6.9" type="github" pages="3">
  <diagram id="C5RBs43oDa-KdzZeNtuy" name="Page-1">
    <mxGraphModel dx="946" dy="645" grid="1" gridSize="10" guides="1" tooltips="1" connect="1" arrows="1" fold="1" page="1" pageScale="1" pageWidth="827" pageHeight="1169" math="0" shadow="0">
      <root>
        <mxCell id="WIyWlLk6GJQsqaUBKTNV-0" />
        <mxCell id="WIyWlLk6GJQsqaUBKTNV-1" parent="WIyWlLk6GJQsqaUBKTNV-0" />
        <mxCell id="1Lv5zS3VnSDHCMhLqtI5-4" value="" style="edgeStyle=orthogonalEdgeStyle;rounded=0;orthogonalLoop=1;jettySize=auto;html=1;" edge="1" parent="WIyWlLk6GJQsqaUBKTNV-1" source="1Lv5zS3VnSDHCMhLqtI5-0">
          <mxGeometry relative="1" as="geometry">
            <mxPoint x="335" y="280" as="targetPoint" />
          </mxGeometry>
        </mxCell>
        <mxCell id="1Lv5zS3VnSDHCMhLqtI5-0" value="login&lt;br&gt;input:&lt;br&gt;- email&lt;br&gt;- password" style="rounded=1;whiteSpace=wrap;html=1;shadow=0;strokeWidth=1;glass=0;" vertex="1" parent="WIyWlLk6GJQsqaUBKTNV-1">
          <mxGeometry x="160" y="160" width="350" height="90" as="geometry" />
        </mxCell>
        <mxCell id="1Lv5zS3VnSDHCMhLqtI5-8" value="" style="edgeStyle=orthogonalEdgeStyle;rounded=0;orthogonalLoop=1;jettySize=auto;html=1;" edge="1" parent="WIyWlLk6GJQsqaUBKTNV-1" source="1Lv5zS3VnSDHCMhLqtI5-3">
          <mxGeometry relative="1" as="geometry">
            <mxPoint x="335" y="440" as="targetPoint" />
          </mxGeometry>
        </mxCell>
        <mxCell id="1Lv5zS3VnSDHCMhLqtI5-3" value="register bank account&lt;br&gt;input:&lt;br&gt;- currency (string, unique, 1 user account 1 currency)&lt;br&gt;- bankCode (string)&lt;br&gt;- accountNumber (string, min 10 characters)&lt;br&gt;- accountHolderName (string, minimal 3 characters)" style="whiteSpace=wrap;html=1;rounded=1;shadow=0;strokeWidth=1;glass=0;" vertex="1" parent="WIyWlLk6GJQsqaUBKTNV-1">
          <mxGeometry x="160" y="280" width="350" height="110" as="geometry" />
        </mxCell>
        <mxCell id="1Lv5zS3VnSDHCMhLqtI5-10" value="" style="edgeStyle=orthogonalEdgeStyle;rounded=0;orthogonalLoop=1;jettySize=auto;html=1;" edge="1" parent="WIyWlLk6GJQsqaUBKTNV-1" source="1Lv5zS3VnSDHCMhLqtI5-7">
          <mxGeometry relative="1" as="geometry">
            <mxPoint x="335" y="590" as="targetPoint" />
          </mxGeometry>
        </mxCell>
        <mxCell id="1Lv5zS3VnSDHCMhLqtI5-26" value="" style="edgeStyle=orthogonalEdgeStyle;rounded=0;orthogonalLoop=1;jettySize=auto;html=1;" edge="1" parent="WIyWlLk6GJQsqaUBKTNV-1" source="1Lv5zS3VnSDHCMhLqtI5-7" target="1Lv5zS3VnSDHCMhLqtI5-25">
          <mxGeometry relative="1" as="geometry" />
        </mxCell>
        <mxCell id="1Lv5zS3VnSDHCMhLqtI5-7" value="is user login ?" style="rhombus;whiteSpace=wrap;html=1;rounded=1;shadow=0;strokeWidth=1;glass=0;" vertex="1" parent="WIyWlLk6GJQsqaUBKTNV-1">
          <mxGeometry x="210" y="440" width="250" height="105" as="geometry" />
        </mxCell>
        <mxCell id="1Lv5zS3VnSDHCMhLqtI5-12" value="" style="edgeStyle=orthogonalEdgeStyle;rounded=0;orthogonalLoop=1;jettySize=auto;html=1;" edge="1" parent="WIyWlLk6GJQsqaUBKTNV-1" source="1Lv5zS3VnSDHCMhLqtI5-9">
          <mxGeometry relative="1" as="geometry">
            <mxPoint x="335" y="740" as="targetPoint" />
          </mxGeometry>
        </mxCell>
        <mxCell id="1Lv5zS3VnSDHCMhLqtI5-28" value="" style="edgeStyle=orthogonalEdgeStyle;rounded=0;orthogonalLoop=1;jettySize=auto;html=1;" edge="1" parent="WIyWlLk6GJQsqaUBKTNV-1" source="1Lv5zS3VnSDHCMhLqtI5-9" target="1Lv5zS3VnSDHCMhLqtI5-27">
          <mxGeometry relative="1" as="geometry" />
        </mxCell>
        <mxCell id="1Lv5zS3VnSDHCMhLqtI5-9" value="is &amp;nbsp;accountNumber &amp;nbsp;&amp;gt;= 10 chars?" style="rhombus;whiteSpace=wrap;html=1;rounded=1;shadow=0;strokeWidth=1;glass=0;" vertex="1" parent="WIyWlLk6GJQsqaUBKTNV-1">
          <mxGeometry x="210" y="593" width="250" height="105" as="geometry" />
        </mxCell>
        <mxCell id="1Lv5zS3VnSDHCMhLqtI5-14" value="" style="edgeStyle=orthogonalEdgeStyle;rounded=0;orthogonalLoop=1;jettySize=auto;html=1;" edge="1" parent="WIyWlLk6GJQsqaUBKTNV-1" source="1Lv5zS3VnSDHCMhLqtI5-11">
          <mxGeometry relative="1" as="geometry">
            <mxPoint x="335" y="900" as="targetPoint" />
          </mxGeometry>
        </mxCell>
        <mxCell id="1Lv5zS3VnSDHCMhLqtI5-30" value="" style="edgeStyle=orthogonalEdgeStyle;rounded=0;orthogonalLoop=1;jettySize=auto;html=1;" edge="1" parent="WIyWlLk6GJQsqaUBKTNV-1" source="1Lv5zS3VnSDHCMhLqtI5-11" target="1Lv5zS3VnSDHCMhLqtI5-29">
          <mxGeometry relative="1" as="geometry" />
        </mxCell>
        <mxCell id="1Lv5zS3VnSDHCMhLqtI5-11" value="is &amp;nbsp;accountHolderName &amp;nbsp;&amp;gt;= 3 chars?" style="rhombus;whiteSpace=wrap;html=1;rounded=1;shadow=0;strokeWidth=1;glass=0;" vertex="1" parent="WIyWlLk6GJQsqaUBKTNV-1">
          <mxGeometry x="210" y="740" width="250" height="105" as="geometry" />
        </mxCell>
        <mxCell id="1Lv5zS3VnSDHCMhLqtI5-16" value="" style="edgeStyle=orthogonalEdgeStyle;rounded=0;orthogonalLoop=1;jettySize=auto;html=1;" edge="1" parent="WIyWlLk6GJQsqaUBKTNV-1" source="1Lv5zS3VnSDHCMhLqtI5-13">
          <mxGeometry relative="1" as="geometry">
            <mxPoint x="335" y="1085" as="targetPoint" />
          </mxGeometry>
        </mxCell>
        <mxCell id="1Lv5zS3VnSDHCMhLqtI5-32" value="" style="edgeStyle=orthogonalEdgeStyle;rounded=0;orthogonalLoop=1;jettySize=auto;html=1;" edge="1" parent="WIyWlLk6GJQsqaUBKTNV-1" source="1Lv5zS3VnSDHCMhLqtI5-13" target="1Lv5zS3VnSDHCMhLqtI5-31">
          <mxGeometry relative="1" as="geometry" />
        </mxCell>
        <mxCell id="1Lv5zS3VnSDHCMhLqtI5-13" value="is &amp;nbsp;currency unique for users?&lt;br&gt;query user&#39;s bank account and find the currency" style="rhombus;whiteSpace=wrap;html=1;rounded=1;shadow=0;strokeWidth=1;glass=0;" vertex="1" parent="WIyWlLk6GJQsqaUBKTNV-1">
          <mxGeometry x="210" y="900" width="250" height="105" as="geometry" />
        </mxCell>
        <mxCell id="1Lv5zS3VnSDHCMhLqtI5-17" value="yes" style="text;html=1;resizable=0;autosize=1;align=center;verticalAlign=middle;points=[];fillColor=none;strokeColor=none;rounded=0;" vertex="1" parent="WIyWlLk6GJQsqaUBKTNV-1">
          <mxGeometry x="355" y="560" width="30" height="20" as="geometry" />
        </mxCell>
        <mxCell id="1Lv5zS3VnSDHCMhLqtI5-18" value="yes" style="text;html=1;resizable=0;autosize=1;align=center;verticalAlign=middle;points=[];fillColor=none;strokeColor=none;rounded=0;" vertex="1" parent="WIyWlLk6GJQsqaUBKTNV-1">
          <mxGeometry x="355" y="710" width="30" height="20" as="geometry" />
        </mxCell>
        <mxCell id="1Lv5zS3VnSDHCMhLqtI5-19" value="yes" style="text;html=1;resizable=0;autosize=1;align=center;verticalAlign=middle;points=[];fillColor=none;strokeColor=none;rounded=0;" vertex="1" parent="WIyWlLk6GJQsqaUBKTNV-1">
          <mxGeometry x="355" y="860" width="30" height="20" as="geometry" />
        </mxCell>
        <mxCell id="1Lv5zS3VnSDHCMhLqtI5-20" value="yes" style="text;html=1;resizable=0;autosize=1;align=center;verticalAlign=middle;points=[];fillColor=none;strokeColor=none;rounded=0;" vertex="1" parent="WIyWlLk6GJQsqaUBKTNV-1">
          <mxGeometry x="355" y="1040" width="30" height="20" as="geometry" />
        </mxCell>
        <mxCell id="1Lv5zS3VnSDHCMhLqtI5-23" value="succes register (201)" style="rounded=1;whiteSpace=wrap;html=1;shadow=0;strokeWidth=1;glass=0;" vertex="1" parent="WIyWlLk6GJQsqaUBKTNV-1">
          <mxGeometry x="200" y="1090" width="270" height="60" as="geometry" />
        </mxCell>
        <mxCell id="1Lv5zS3VnSDHCMhLqtI5-25" value="error message: unauthorized &lt;br&gt;status: 401" style="rounded=1;whiteSpace=wrap;html=1;shadow=0;strokeWidth=1;glass=0;" vertex="1" parent="WIyWlLk6GJQsqaUBKTNV-1">
          <mxGeometry x="605" y="462.5" width="120" height="60" as="geometry" />
        </mxCell>
        <mxCell id="1Lv5zS3VnSDHCMhLqtI5-27" value="error message: account number minimal 10 chars&lt;br&gt;status: 422" style="whiteSpace=wrap;html=1;rounded=1;shadow=0;strokeWidth=1;glass=0;" vertex="1" parent="WIyWlLk6GJQsqaUBKTNV-1">
          <mxGeometry x="605" y="615.5" width="120" height="60" as="geometry" />
        </mxCell>
        <mxCell id="1Lv5zS3VnSDHCMhLqtI5-29" value="error message:&lt;br&gt;card holder name minimal 3 chars&lt;br&gt;status: 422" style="rounded=1;whiteSpace=wrap;html=1;shadow=0;strokeWidth=1;glass=0;" vertex="1" parent="WIyWlLk6GJQsqaUBKTNV-1">
          <mxGeometry x="605" y="762.5" width="120" height="60" as="geometry" />
        </mxCell>
        <mxCell id="1Lv5zS3VnSDHCMhLqtI5-31" value="error message:&amp;nbsp;&lt;br&gt;currency is duplicate&lt;br&gt;status: 422" style="whiteSpace=wrap;html=1;rounded=1;shadow=0;strokeWidth=1;glass=0;" vertex="1" parent="WIyWlLk6GJQsqaUBKTNV-1">
          <mxGeometry x="605" y="922.5" width="120" height="60" as="geometry" />
        </mxCell>
        <mxCell id="BDzDWYntvt90QVyidTbR-0" value="no" style="text;html=1;resizable=0;autosize=1;align=center;verticalAlign=middle;points=[];fillColor=none;strokeColor=none;rounded=0;" vertex="1" parent="WIyWlLk6GJQsqaUBKTNV-1">
          <mxGeometry x="500" y="462.5" width="30" height="20" as="geometry" />
        </mxCell>
        <mxCell id="BDzDWYntvt90QVyidTbR-1" value="no" style="text;html=1;resizable=0;autosize=1;align=center;verticalAlign=middle;points=[];fillColor=none;strokeColor=none;rounded=0;" vertex="1" parent="WIyWlLk6GJQsqaUBKTNV-1">
          <mxGeometry x="500" y="615.5" width="30" height="20" as="geometry" />
        </mxCell>
        <mxCell id="BDzDWYntvt90QVyidTbR-2" value="no" style="text;html=1;resizable=0;autosize=1;align=center;verticalAlign=middle;points=[];fillColor=none;strokeColor=none;rounded=0;" vertex="1" parent="WIyWlLk6GJQsqaUBKTNV-1">
          <mxGeometry x="510" y="762.5" width="30" height="20" as="geometry" />
        </mxCell>
      </root>
    </mxGraphModel>
  </diagram>
  <diagram id="xiiAgUDCY4KkS-l0XSb-" name="Page-2">
    <mxGraphModel dx="946" dy="645" grid="1" gridSize="10" guides="1" tooltips="1" connect="1" arrows="1" fold="1" page="1" pageScale="1" pageWidth="850" pageHeight="1100" math="0" shadow="0">
      <root>
        <mxCell id="VWC6-W2UMlT6yEHmySCq-0" />
        <mxCell id="VWC6-W2UMlT6yEHmySCq-1" parent="VWC6-W2UMlT6yEHmySCq-0" />
        <mxCell id="GsoZBAAxOvQ1cyv2eqb_-4" value="" style="edgeStyle=orthogonalEdgeStyle;rounded=0;orthogonalLoop=1;jettySize=auto;html=1;" edge="1" parent="VWC6-W2UMlT6yEHmySCq-1" source="SCvP7J23Tvzb4IaTTwEZ-0" target="GsoZBAAxOvQ1cyv2eqb_-3">
          <mxGeometry relative="1" as="geometry" />
        </mxCell>
        <mxCell id="SCvP7J23Tvzb4IaTTwEZ-0" value="register user&lt;br&gt;input:&lt;br&gt;- bussines name (string, min 3 char)&lt;br&gt;- email (string, unique, email format)&lt;br&gt;- password (string, min 8 chars, 1 number, 1 lowercase, 1 uppercase, alphanumeric)" style="rounded=1;whiteSpace=wrap;html=1;" vertex="1" parent="VWC6-W2UMlT6yEHmySCq-1">
          <mxGeometry x="260" y="60" width="330" height="90" as="geometry" />
        </mxCell>
        <mxCell id="GsoZBAAxOvQ1cyv2eqb_-6" value="" style="edgeStyle=orthogonalEdgeStyle;rounded=0;orthogonalLoop=1;jettySize=auto;html=1;" edge="1" parent="VWC6-W2UMlT6yEHmySCq-1" source="GsoZBAAxOvQ1cyv2eqb_-3" target="GsoZBAAxOvQ1cyv2eqb_-5">
          <mxGeometry relative="1" as="geometry" />
        </mxCell>
        <mxCell id="sMG8O6393UdoC70SUzRv-1" value="" style="edgeStyle=orthogonalEdgeStyle;rounded=0;orthogonalLoop=1;jettySize=auto;html=1;" edge="1" parent="VWC6-W2UMlT6yEHmySCq-1" source="GsoZBAAxOvQ1cyv2eqb_-3" target="sMG8O6393UdoC70SUzRv-0">
          <mxGeometry relative="1" as="geometry" />
        </mxCell>
        <mxCell id="GsoZBAAxOvQ1cyv2eqb_-3" value="is bussines name &amp;gt;= 3?" style="rhombus;whiteSpace=wrap;html=1;rounded=1;" vertex="1" parent="VWC6-W2UMlT6yEHmySCq-1">
          <mxGeometry x="280" y="230" width="290" height="85" as="geometry" />
        </mxCell>
        <mxCell id="GsoZBAAxOvQ1cyv2eqb_-8" value="" style="edgeStyle=orthogonalEdgeStyle;rounded=0;orthogonalLoop=1;jettySize=auto;html=1;" edge="1" parent="VWC6-W2UMlT6yEHmySCq-1" source="GsoZBAAxOvQ1cyv2eqb_-5" target="GsoZBAAxOvQ1cyv2eqb_-7">
          <mxGeometry relative="1" as="geometry" />
        </mxCell>
        <mxCell id="vDNH3BoYkmnVLWkkeDuI-1" value="" style="edgeStyle=orthogonalEdgeStyle;rounded=0;orthogonalLoop=1;jettySize=auto;html=1;" edge="1" parent="VWC6-W2UMlT6yEHmySCq-1" source="GsoZBAAxOvQ1cyv2eqb_-5" target="vDNH3BoYkmnVLWkkeDuI-0">
          <mxGeometry relative="1" as="geometry" />
        </mxCell>
        <mxCell id="GsoZBAAxOvQ1cyv2eqb_-5" value="is email unique and format valid ?" style="rhombus;whiteSpace=wrap;html=1;rounded=1;" vertex="1" parent="VWC6-W2UMlT6yEHmySCq-1">
          <mxGeometry x="280" y="395" width="290" height="85" as="geometry" />
        </mxCell>
        <mxCell id="GsoZBAAxOvQ1cyv2eqb_-10" value="" style="edgeStyle=orthogonalEdgeStyle;rounded=0;orthogonalLoop=1;jettySize=auto;html=1;" edge="1" parent="VWC6-W2UMlT6yEHmySCq-1" source="GsoZBAAxOvQ1cyv2eqb_-7" target="GsoZBAAxOvQ1cyv2eqb_-9">
          <mxGeometry relative="1" as="geometry" />
        </mxCell>
        <mxCell id="vDNH3BoYkmnVLWkkeDuI-3" value="" style="edgeStyle=orthogonalEdgeStyle;rounded=0;orthogonalLoop=1;jettySize=auto;html=1;" edge="1" parent="VWC6-W2UMlT6yEHmySCq-1" source="GsoZBAAxOvQ1cyv2eqb_-7" target="vDNH3BoYkmnVLWkkeDuI-2">
          <mxGeometry relative="1" as="geometry" />
        </mxCell>
        <mxCell id="GsoZBAAxOvQ1cyv2eqb_-7" value="is password&amp;nbsp;min 8 chars, 1 number, 1 lowercase, 1 uppercase, alphanumeric&lt;br&gt;&amp;nbsp;chars?" style="rhombus;whiteSpace=wrap;html=1;rounded=1;" vertex="1" parent="VWC6-W2UMlT6yEHmySCq-1">
          <mxGeometry x="280" y="530" width="290" height="150" as="geometry" />
        </mxCell>
        <mxCell id="GsoZBAAxOvQ1cyv2eqb_-9" value="succes register user&lt;br&gt;status: 201" style="whiteSpace=wrap;html=1;rounded=1;" vertex="1" parent="VWC6-W2UMlT6yEHmySCq-1">
          <mxGeometry x="365" y="737.5" width="120" height="60" as="geometry" />
        </mxCell>
        <mxCell id="sMG8O6393UdoC70SUzRv-0" value="error message: bussines name minimal 3 char&lt;br&gt;status: 422" style="whiteSpace=wrap;html=1;rounded=1;" vertex="1" parent="VWC6-W2UMlT6yEHmySCq-1">
          <mxGeometry x="680" y="242.5" width="160" height="60" as="geometry" />
        </mxCell>
        <mxCell id="vDNH3BoYkmnVLWkkeDuI-0" value="error message: email &amp;nbsp;should be unique / format should be email&lt;br&gt;status: 422" style="whiteSpace=wrap;html=1;rounded=1;" vertex="1" parent="VWC6-W2UMlT6yEHmySCq-1">
          <mxGeometry x="666" y="407.5" width="175" height="60" as="geometry" />
        </mxCell>
        <mxCell id="vDNH3BoYkmnVLWkkeDuI-2" value="error message: &amp;nbsp;password min 8 chars, 1 number, 1 lowercase, 1 uppercase, alphanumeric&lt;br&gt;status: 422" style="whiteSpace=wrap;html=1;rounded=1;" vertex="1" parent="VWC6-W2UMlT6yEHmySCq-1">
          <mxGeometry x="666" y="550" width="174" height="110" as="geometry" />
        </mxCell>
        <mxCell id="NN96780K5HP71fpew0_O-0" value="yes" style="text;html=1;resizable=0;autosize=1;align=center;verticalAlign=middle;points=[];fillColor=none;strokeColor=none;rounded=0;" vertex="1" parent="VWC6-W2UMlT6yEHmySCq-1">
          <mxGeometry x="450" y="340" width="30" height="20" as="geometry" />
        </mxCell>
        <mxCell id="NN96780K5HP71fpew0_O-1" value="yes" style="text;html=1;resizable=0;autosize=1;align=center;verticalAlign=middle;points=[];fillColor=none;strokeColor=none;rounded=0;" vertex="1" parent="VWC6-W2UMlT6yEHmySCq-1">
          <mxGeometry x="440" y="500" width="30" height="20" as="geometry" />
        </mxCell>
        <mxCell id="NN96780K5HP71fpew0_O-2" value="yes" style="text;html=1;resizable=0;autosize=1;align=center;verticalAlign=middle;points=[];fillColor=none;strokeColor=none;rounded=0;" vertex="1" parent="VWC6-W2UMlT6yEHmySCq-1">
          <mxGeometry x="440" y="700" width="30" height="20" as="geometry" />
        </mxCell>
        <mxCell id="NN96780K5HP71fpew0_O-3" value="no" style="text;html=1;resizable=0;autosize=1;align=center;verticalAlign=middle;points=[];fillColor=none;strokeColor=none;rounded=0;" vertex="1" parent="VWC6-W2UMlT6yEHmySCq-1">
          <mxGeometry x="600" y="242.5" width="30" height="20" as="geometry" />
        </mxCell>
        <mxCell id="NN96780K5HP71fpew0_O-4" value="no" style="text;html=1;resizable=0;autosize=1;align=center;verticalAlign=middle;points=[];fillColor=none;strokeColor=none;rounded=0;" vertex="1" parent="VWC6-W2UMlT6yEHmySCq-1">
          <mxGeometry x="600" y="407.5" width="30" height="20" as="geometry" />
        </mxCell>
        <mxCell id="NN96780K5HP71fpew0_O-5" value="no" style="text;html=1;resizable=0;autosize=1;align=center;verticalAlign=middle;points=[];fillColor=none;strokeColor=none;rounded=0;" vertex="1" parent="VWC6-W2UMlT6yEHmySCq-1">
          <mxGeometry x="600" y="570" width="30" height="20" as="geometry" />
        </mxCell>
      </root>
    </mxGraphModel>
  </diagram>
  <diagram id="edxepnIG5cjjmdFaEgb_" name="Page-3">
    <mxGraphModel dx="946" dy="645" grid="1" gridSize="10" guides="1" tooltips="1" connect="1" arrows="1" fold="1" page="1" pageScale="1" pageWidth="850" pageHeight="1100" math="0" shadow="0">
      <root>
        <mxCell id="bZtSYksPwD2q65-bzhEO-0" />
        <mxCell id="bZtSYksPwD2q65-bzhEO-1" parent="bZtSYksPwD2q65-bzhEO-0" />
        <mxCell id="dB4V_sjOZ2ibHYbwQKVj-1" value="" style="edgeStyle=orthogonalEdgeStyle;rounded=0;orthogonalLoop=1;jettySize=auto;html=1;" edge="1" parent="bZtSYksPwD2q65-bzhEO-1" source="bZtSYksPwD2q65-bzhEO-2">
          <mxGeometry relative="1" as="geometry">
            <mxPoint x="410" y="140" as="targetPoint" />
          </mxGeometry>
        </mxCell>
        <mxCell id="bZtSYksPwD2q65-bzhEO-2" value="login&lt;br&gt;input:&lt;br&gt;- email&lt;br&gt;- password" style="rounded=1;whiteSpace=wrap;html=1;" vertex="1" parent="bZtSYksPwD2q65-bzhEO-1">
          <mxGeometry x="350" y="50" width="120" height="60" as="geometry" />
        </mxCell>
        <mxCell id="dB4V_sjOZ2ibHYbwQKVj-3" value="" style="edgeStyle=orthogonalEdgeStyle;rounded=0;orthogonalLoop=1;jettySize=auto;html=1;" edge="1" parent="bZtSYksPwD2q65-bzhEO-1" source="dB4V_sjOZ2ibHYbwQKVj-0">
          <mxGeometry relative="1" as="geometry">
            <mxPoint x="410" y="270" as="targetPoint" />
          </mxGeometry>
        </mxCell>
        <mxCell id="dB4V_sjOZ2ibHYbwQKVj-0" value="withdrawal&lt;br&gt;input:&lt;br&gt;- amount(int)&lt;br&gt;- bank account id(int)" style="rounded=1;whiteSpace=wrap;html=1;" vertex="1" parent="bZtSYksPwD2q65-bzhEO-1">
          <mxGeometry x="350" y="140" width="120" height="60" as="geometry" />
        </mxCell>
        <mxCell id="dB4V_sjOZ2ibHYbwQKVj-6" value="" style="edgeStyle=orthogonalEdgeStyle;rounded=0;orthogonalLoop=1;jettySize=auto;html=1;" edge="1" parent="bZtSYksPwD2q65-bzhEO-1" source="dB4V_sjOZ2ibHYbwQKVj-4" target="dB4V_sjOZ2ibHYbwQKVj-5">
          <mxGeometry relative="1" as="geometry">
            <Array as="points">
              <mxPoint x="410" y="470" />
              <mxPoint x="410" y="470" />
            </Array>
          </mxGeometry>
        </mxCell>
        <mxCell id="dB4V_sjOZ2ibHYbwQKVj-13" value="" style="edgeStyle=orthogonalEdgeStyle;rounded=0;orthogonalLoop=1;jettySize=auto;html=1;" edge="1" parent="bZtSYksPwD2q65-bzhEO-1" source="dB4V_sjOZ2ibHYbwQKVj-4" target="dB4V_sjOZ2ibHYbwQKVj-12">
          <mxGeometry relative="1" as="geometry" />
        </mxCell>
        <mxCell id="dB4V_sjOZ2ibHYbwQKVj-4" value="is bank belong to user?&lt;br&gt;- check authorization middleware" style="rhombus;whiteSpace=wrap;html=1;" vertex="1" parent="bZtSYksPwD2q65-bzhEO-1">
          <mxGeometry x="270" y="270" width="280" height="120" as="geometry" />
        </mxCell>
        <mxCell id="dB4V_sjOZ2ibHYbwQKVj-9" value="" style="edgeStyle=orthogonalEdgeStyle;rounded=0;orthogonalLoop=1;jettySize=auto;html=1;" edge="1" parent="bZtSYksPwD2q65-bzhEO-1" source="dB4V_sjOZ2ibHYbwQKVj-5" target="dB4V_sjOZ2ibHYbwQKVj-8">
          <mxGeometry relative="1" as="geometry" />
        </mxCell>
        <mxCell id="MarXRhYBVtIO_RN2Z1uA-1" value="" style="edgeStyle=orthogonalEdgeStyle;rounded=0;orthogonalLoop=1;jettySize=auto;html=1;" edge="1" parent="bZtSYksPwD2q65-bzhEO-1" source="dB4V_sjOZ2ibHYbwQKVj-5" target="MarXRhYBVtIO_RN2Z1uA-0">
          <mxGeometry relative="1" as="geometry" />
        </mxCell>
        <mxCell id="dB4V_sjOZ2ibHYbwQKVj-5" value="is balance enough?&lt;br&gt;- there is balance field in user model (should query user)" style="rhombus;whiteSpace=wrap;html=1;" vertex="1" parent="bZtSYksPwD2q65-bzhEO-1">
          <mxGeometry x="270" y="450" width="280" height="120" as="geometry" />
        </mxCell>
        <mxCell id="dB4V_sjOZ2ibHYbwQKVj-11" value="" style="edgeStyle=orthogonalEdgeStyle;rounded=0;orthogonalLoop=1;jettySize=auto;html=1;" edge="1" parent="bZtSYksPwD2q65-bzhEO-1" source="dB4V_sjOZ2ibHYbwQKVj-8" target="dB4V_sjOZ2ibHYbwQKVj-10">
          <mxGeometry relative="1" as="geometry" />
        </mxCell>
        <mxCell id="MarXRhYBVtIO_RN2Z1uA-3" value="" style="edgeStyle=orthogonalEdgeStyle;rounded=0;orthogonalLoop=1;jettySize=auto;html=1;" edge="1" parent="bZtSYksPwD2q65-bzhEO-1" source="dB4V_sjOZ2ibHYbwQKVj-8" target="MarXRhYBVtIO_RN2Z1uA-2">
          <mxGeometry relative="1" as="geometry" />
        </mxCell>
        <mxCell id="dB4V_sjOZ2ibHYbwQKVj-8" value="is time valid?&lt;br&gt;- there is last withdrawal date in user model (should query user)" style="rhombus;whiteSpace=wrap;html=1;" vertex="1" parent="bZtSYksPwD2q65-bzhEO-1">
          <mxGeometry x="270" y="610" width="280" height="120" as="geometry" />
        </mxCell>
        <mxCell id="dB4V_sjOZ2ibHYbwQKVj-10" value="succes withdrawal&lt;br&gt;status: 201" style="whiteSpace=wrap;html=1;" vertex="1" parent="bZtSYksPwD2q65-bzhEO-1">
          <mxGeometry x="350" y="770" width="120" height="60" as="geometry" />
        </mxCell>
        <mxCell id="dB4V_sjOZ2ibHYbwQKVj-12" value="error message: &amp;nbsp;unauthorized&lt;br&gt;status: 401" style="whiteSpace=wrap;html=1;" vertex="1" parent="bZtSYksPwD2q65-bzhEO-1">
          <mxGeometry x="660" y="300" width="120" height="60" as="geometry" />
        </mxCell>
        <mxCell id="MarXRhYBVtIO_RN2Z1uA-0" value="error message: balance is less than amount&lt;br&gt;status: 400" style="whiteSpace=wrap;html=1;" vertex="1" parent="bZtSYksPwD2q65-bzhEO-1">
          <mxGeometry x="670" y="480" width="120" height="60" as="geometry" />
        </mxCell>
        <mxCell id="MarXRhYBVtIO_RN2Z1uA-2" value="error message: &amp;nbsp;only once a day withdrawal allowed&lt;br&gt;status: 400" style="whiteSpace=wrap;html=1;" vertex="1" parent="bZtSYksPwD2q65-bzhEO-1">
          <mxGeometry x="670" y="640" width="120" height="60" as="geometry" />
        </mxCell>
        <mxCell id="W9eJn8emsqyaPY5rbU5k-0" value="yes" style="text;html=1;resizable=0;autosize=1;align=center;verticalAlign=middle;points=[];fillColor=none;strokeColor=none;rounded=0;" vertex="1" parent="bZtSYksPwD2q65-bzhEO-1">
          <mxGeometry x="430" y="410" width="30" height="20" as="geometry" />
        </mxCell>
        <mxCell id="W9eJn8emsqyaPY5rbU5k-1" value="no" style="text;html=1;resizable=0;autosize=1;align=center;verticalAlign=middle;points=[];fillColor=none;strokeColor=none;rounded=0;" vertex="1" parent="bZtSYksPwD2q65-bzhEO-1">
          <mxGeometry x="580" y="300" width="30" height="20" as="geometry" />
        </mxCell>
        <mxCell id="W9eJn8emsqyaPY5rbU5k-2" value="no" style="text;html=1;resizable=0;autosize=1;align=center;verticalAlign=middle;points=[];fillColor=none;strokeColor=none;rounded=0;" vertex="1" parent="bZtSYksPwD2q65-bzhEO-1">
          <mxGeometry x="580" y="480" width="30" height="20" as="geometry" />
        </mxCell>
        <mxCell id="W9eJn8emsqyaPY5rbU5k-3" value="no" style="text;html=1;resizable=0;autosize=1;align=center;verticalAlign=middle;points=[];fillColor=none;strokeColor=none;rounded=0;" vertex="1" parent="bZtSYksPwD2q65-bzhEO-1">
          <mxGeometry x="590" y="640" width="30" height="20" as="geometry" />
        </mxCell>
        <mxCell id="W9eJn8emsqyaPY5rbU5k-4" value="yes" style="text;html=1;resizable=0;autosize=1;align=center;verticalAlign=middle;points=[];fillColor=none;strokeColor=none;rounded=0;" vertex="1" parent="bZtSYksPwD2q65-bzhEO-1">
          <mxGeometry x="430" y="580" width="30" height="20" as="geometry" />
        </mxCell>
        <mxCell id="W9eJn8emsqyaPY5rbU5k-5" value="yes" style="text;html=1;resizable=0;autosize=1;align=center;verticalAlign=middle;points=[];fillColor=none;strokeColor=none;rounded=0;" vertex="1" parent="bZtSYksPwD2q65-bzhEO-1">
          <mxGeometry x="430" y="740" width="30" height="20" as="geometry" />
        </mxCell>
      </root>
    </mxGraphModel>
  </diagram>
</mxfile>
